<mxfile host="app.diagrams.net" modified="2024-07-06T20:30:11.687Z" agent="Mozilla/5.0 (Macintosh; Intel Mac OS X 10_15_7) AppleWebKit/605.1.15 (KHTML, like Gecko) Version/17.5 Safari/605.1.15" version="24.6.4" etag="74dTRVPLqO8EuahB2_t8" type="github">
  <diagram name="Page-1" id="y0Y1l-H2pMguVAu8atV2">
    <mxGraphModel>
      <root>
        <mxCell id="0" />
        <mxCell id="1" parent="0" />
      </root>
    </mxGraphModel>
  </diagram>
</mxfile>
